<svg xmlns="http://www.w3.org/2000/svg" width="104" height="99" fill="none"><path fill="#F2FF00" d="M91.88 5.78c-.346.22-.668.427-.9.63l-.91.766c.635-.145.8-.704 1.087-.885.448-.244 1.028-.512 1.604-.867.352-.243.79-.5 1.154-.953-.159.19-.33.34-.493.47a3.06 3.06 0 0 0 .677-.772c.136-.222.25-.521.296-.815.018-.212.029-.429.034-.653-.098.235-.106.861-.337 1.057-.665 1.237-1.541 1.527-2.212 2.022Zm-9.482 43.907a1.877 1.877 0 0 0-.144-.034c.065.016.132.035.193.053l-.049-.019ZM18.91 31.962c-.031.11-.07.227-.13.355l.065-.136c.026-.077.046-.149.065-.219Zm-1.424-2.894a2.465 2.465 0 0 0-.518-.266c.177.092.338.152.518.266ZM81.79 12.235a1.8 1.8 0 0 0 .364-.154 5.896 5.896 0 0 1-.364.154Zm12.125-7.764c.203-.242.385-.545.507-.95a2.96 2.96 0 0 1-.507.95ZM93.553.786C93.36.6 93.06.43 92.993.416c.07.033.38.207.56.37Zm-3.919 5.559c.633-.449 1.204-.92 1.803-1.346-.61.405-1.18.866-1.803 1.346ZM1.278 31.565l.008.051.013.058-.02-.11ZM12.924.35c.166-.007.704.313.73.356 0-.044-.594-.392-.73-.356Zm3.965 3.591c.642.341 1.285.75 1.925 1.188a12.46 12.46 0 0 0-1.925-1.188ZM81.8 49.726a.552.552 0 0 0-.014-.08c-.004.004-.007.007-.01.007a.519.519 0 0 1 .024.073Zm.006.053a1.458 1.458 0 0 1 .003.064l-.003-.064ZM18.909 31.962c.039-.137.065-.265.095-.391-.032.133-.06.258-.095.391Zm63.037 17.67c.049 0 .129-.015.308.02-.169-.04-.325-.066-.33-.029-.111.007-.094.008-.141.013a.1.1 0 0 1 .004.01l.001-.001c.04-.004.049-.007.158-.012Zm-.176.019c.002.002.004.003.008.002a.053.053 0 0 0-.004-.006l-.004.004Zm.886.154c.065-.003-.051-.05-.209-.099.241.093.13.064.21.099Zm-.882-.158.007-.01h.002c-.013-.033-.022.018-.013.014-.005-.007-.004-.02.004-.004ZM18.868 30.603c.045.395.001 1.066-.15 1.167-.046.543-.684 1.378-1.182 1.541-.51.264-.994.399-1.444.487-.91.182-1.76.243-2.59.286.653.271 1.078-.09 1.553-.1.665-.012 1.35-.053 2.12-.309.377-.138.81-.314 1.205-.748.163-.138.283-.367.388-.587a2.831 2.831 0 0 1-.162.298 2.376 2.376 0 0 1-.384.436c.267-.256.5-.601.617-.968.097-.418.2-.89.029-1.503Zm60.296-17.886c.41.443 1.115.698 1.662.73a3.85 3.85 0 0 0 1.34-.171c.722-.22 1.251-.496 1.766-.747 1.932-1.165 3.385-2.527 5.207-3.838.358-.255.638-.897-.299-.328-.796.446-1.559.966-2.303 1.523.152.023.466-.294.68-.353-.505.464-.943.828-1.495 1.218l1.099-.783c-.941.671-1.856 1.375-2.964 2.086-.409.259-.593.824-1.486.946 1.846-1.035 2.763-2.155 4.166-3.114l-.012-.002c.594-.427 1.112-.835 1.673-1.252-.182.118-.372.236-.514.367.755-.693 1.542-1.311 2.34-1.913-2.557 1.36-4.73 3.525-7.449 5.073.719-.581 1.723-1.053 2.151-1.638-1.12.698-1.929 1.829-3.904 2.053.147.01.301.024.446.027-.555.221-1.573-.126-1.913-.752a2.806 2.806 0 0 1-.469-1.543c.013.496.191.938.407 1.327.23.48.92.965 1.529.941-.544-.041-1.198-.447-1.48-.99.215.246.607.668 1.15.77.507.11.932.018 1.297-.119-.643.198-1.561.154-1.982-.517.428.496 1.186.543 1.665.374.512-.153.937-.41 1.335-.679-.456.264-.935.515-1.494.62 1.23-.361 2.057-1.205 2.972-1.887a9.84 9.84 0 0 1-1.478 1.267 39.468 39.468 0 0 0 4.239-3.138c-.215.058-.46.159-.676.218l.23-.173.179-.125.077-.061-.078.051c1.125-.849 2.245-1.695 3.612-2.663.924-.654 2.74-1.288 2.949-2.354.3-1.532-.566-1.839-.786-1.96a1.55 1.55 0 0 0-.547-.181c.1-.032.18-.065.227-.11.158-.137-.336-.335-.924-.163-.579.158-1.135.568-1.515.814l.165-.194c-.083.098-.166.192-.277.22.151-.203.53-.509.609-.678l-.243.038c.223-.276.628-.594 1.21-.786.578-.212 1.354-.152 1.872-.002-1.34-.474-2.502.165-3.215.688-.775.551-1.445 1.191-2.14 1.722-1.527 1.157-2.897 2.358-4.435 3.159-.879.465-1.778.854-2.677 1.362-.85.527-1.95 1.078-2.484 2.698-.068.31-.096.855.063 1.41.153.483.381 1.033.922 1.512Zm.233-2.603c.02-.409.185-.788.39-1.11.2-.285.455-.498.72-.676l.12-.104c-.098.041-.16.05-.026-.096.564-.64 1.41-.976 2.12-1.573.188-.158.476-.31.79-.464.068-.072.118-.084.169-.085l.203-.102c.16-.092.315-.19.48-.266a6.509 6.509 0 0 1-.48.266l-.18.102c.055 0 .117.005.205-.046-1.067.695-2.236 1.36-3.28 2.264.08-.034.185-.09.234-.109l-.355.214c-.319.314-.65.638-.865 1.076.086-.116.164-.226.264-.293-.377.533-.49 1.292-.24 1.919.127.605.831 1.138 1.493 1.036-.426.071-.972-.038-1.273-.433-.336-.406-.48-.877-.493-1.402l-.013.119.017-.237Zm-.47-.362c-.03.102-.029.216-.035.328.005-.111.004-.225.035-.328ZM19.6 5.4l.215.204c.635.394 1.288.797 1.936 1.245-.694-.498-1.39-1.093-2.15-1.449Zm-5.935 27.762c.77.025 1.569-.03 2.282-.25-.716.195-1.498.245-2.282.25Zm-3.086-28.7c1.527 1.358 2.98 2.332 4.398 3.474 1.537 1.268 2.822 2.593 4.035 3.913.255.24.985.712 1.628.996.554.283 1.14.622 2.17.658.52-.006 1.192-.148 1.7-.552.529-.376.83-.876 1.02-1.262.21-.363.358-1.228.248-1.719a3.657 3.657 0 0 0-.467-1.356c-.405-.716-.862-1.197-1.316-1.62-.91-.853-1.86-1.478-2.801-2.158-.375-.266-1.078-.321-.215.388.702.625 1.455 1.229 2.208 1.902-.014-.165-.42-.428-.54-.625.61.41 1.102.799 1.625 1.427a10.401 10.401 0 0 0-1.074-1.107c.456.41.94.875 1.396 1.508.408.595 1.019 1.581.638 2.916-.138.344-.154.688-.44 1.133-.232.42-.867.904-1.578.89 1.951-.521 2.403-2.503 1.86-3.773-.518-1.184-1.239-1.743-1.888-2.369l.002.012c-.584-.541-1.145-.95-1.734-1.376.175.145.35.297.523.402-.91-.561-1.803-1.096-2.578-1.632.983.935 2.313 1.782 3.495 2.839.592.541 1.195 1.112 1.636 1.971.19.452.372 1.012.201 1.636-.159.497-.366 1-.945 1.36.558-.53.818-1.016.91-1.763.034-.723-.266-1.264-.57-1.553.197.336.403.694.463 1.17.1.472-.077.998-.25 1.36-.223.415-.67.827-1.202.945-.528.124-.96.019-1.36-.078.105.054.233.09.349.14-1.107-.124-1.852-.779-2.59-1.239.684.425 1.381.841 2.241 1.1a27.72 27.72 0 0 1-1.165-.553c.259.06.597.203.969.31.464.165 1.018.33 1.657.136-1.003.22-1.689-.234-2.218-.583.45.188.922.378 1.467.422.535.075 1.214-.216 1.453-.727-.308.548-1.052.763-1.584.623-.928-.149-1.71-.615-2.453-1.091l.08.063-.164-.118a36.42 36.42 0 0 1-.847-.59 5.506 5.506 0 0 1-.675-.624l-.123-.091c.058.085.075.14-.086.046-.705-.383-1.298-1.034-2.118-1.456-.216-.11-.465-.316-.729-.544-.092-.035-.123-.077-.143-.124l-.173-.149c-.147-.112-.296-.222-.428-.35.144.109.287.229.428.35l.164.128c-.02-.052-.04-.11-.122-.172 1.047.73 2.14 1.476 3.207 2.27-.047-.07-.122-.159-.149-.202l.272.294c.343.258.686.52 1.017.79a1.66 1.66 0 0 1-.228-.28c1.002.69 1.962 1.525 3.27 1.85.63.126 1.407-.25 1.582-.874.276-.576.102-1.26-.22-1.73.395.405.62 1.213.303 1.841.206-.39.292-.892.156-1.33-.131-.493-.418-.87-.697-1.236-.593-.697-1.295-1.252-2.025-1.742.116.189.275.4.384.593a15.869 15.869 0 0 0-.231-.184 4.946 4.946 0 0 0-.159-.13l-.08-.059.042.037c-.963-.734-1.94-1.347-2.41-1.688-2.544-1.84-4.08-2.839-5.897-4.118-.151-.106-.144-.136-.393-.196a5.289 5.289 0 0 0-.572-.106c.105-.032.184-.069.22-.125.118-.149-.28-.276-.875-.201-.637.024-1.281.712-1.34 1.198.001-.14.011-.136.028-.278-.025.142-.036.274-.097.383-.048-.283.18-.816.266-1.028-.101.042-.171.113-.26.178.112-.469.818-.957 1.417-1.038.61-.126 1.106-.078 1.492-.14-.457.02-.907 0-1.474.112-.533.081-1.285.425-1.614 1.052-.706 1.15-.06 2.594.677 3.224Zm71.222 45.266v-.001a.03.03 0 0 0 0 .004v-.003ZM89.12 7.01l-.267.137c-.584.467-1.168.95-1.762 1.446.654-.53 1.432-.981 2.029-1.583Zm-3.116 46.065c.63.372 1.254.808 1.89 1.25a15.716 15.716 0 0 0-1.89-1.25Zm1.34-.21a40.187 40.187 0 0 0-2.868-2.218c.382.27.752.545 1.112.825a10.362 10.362 0 0 0-1.677-1.065c.14.18.556.383.582.54 1.392.963 2.73 1.895 4.064 2.714-.347-.568-.866-.521-1.213-.796ZM15.346 1.883c1.335.918 2.763 1.741 4.125 2.576-.366-.575-.89-.517-1.25-.781-.96-.759-1.987-1.444-2.886-2.089l1.082.776a15.41 15.41 0 0 0-1.614-1.01c.12.183.517.377.542.528Zm63.907 19.754c-1.839-5.114-4.718-9.06-9.03-12.524 1.473 1.212 3.825 3.622 4.24 4.395 4.494 5.45 6.689 12.712 6.116 19.702-.178 3.545-1.388 7.006-3.051 10.032-1.656 3.053-3.691 5.77-5.477 8.51 3.133-4.158 4.902-7.072 6.526-10.578 2.92-6.251 2.82-13.363.676-19.537ZM71.925 50.28c1.806-2.629 3.725-5.246 5.194-8.096 1.473-2.837 2.432-5.934 2.558-8.982-.141 3.047-1.095 6.112-2.558 8.937-1.459 2.839-3.37 5.462-5.194 8.141Zm-1.7-41.167a11.97 11.97 0 0 0-.32-.255l.32.255Zm-4.262 42.992c.356-.596.72-1.18 1.082-1.753-.37.575-.733 1.16-1.082 1.753Zm12.396-32.73c-1.202-2.692-2.802-5.144-4.709-7.185a28.314 28.314 0 0 1 4.709 7.185Zm0 0c.329.737.628 1.492.895 2.262.067.185.132.372.196.56a26.294 26.294 0 0 0-1.091-2.822Zm-12.396 32.73c-1.495 2.502-2.828 5.226-3.05 8.393.011.5.05 1.038.34 1.57.264.547.907.943 1.465 1.002.54.089 1.234-.013 1.7-.44.46-.407.679-.911.843-1.373.31-.936.402-1.847.579-2.688.152-.793.526-1.606.856-2.397-.335.713-.72 1.483-.903 2.214-.17.733-.263 1.52-.468 2.318-.202.748-.493 1.755-1.522 2.188-.934.344-2.144-.027-2.563-1.03-.37-.914-.265-1.785-.147-2.602.465-2.576 1.565-4.935 2.87-7.155Zm-2.085 2.436c-.315.667-.61 1.36-.855 2.066.26-.714.547-1.4.855-2.066ZM46.838 83.65c-1.207-.397-2.444-.841-3.683-1.276-.62-.217-1.24-.433-1.86-.639-.556-.192-1.359-.485-2.12-.314a3.318 3.318 0 0 1 1.049.084c2.264.702 4.365 1.43 6.614 2.145Zm12.73-79.664a27.019 27.019 0 0 0-4.091-.745c1.408.16 2.769.41 4.092.745Zm15.176 28.848a20.86 20.86 0 0 1-.405 2.34c.183-.77.322-1.55.405-2.34ZM67.541 61.65c-.174.423-.417.905-.907 1.305-.485.412-1.174.563-1.727.517-.52-.031-1.172-.25-1.622-.731-.446-.48-.609-1.046-.684-1.527-.13-.978.025-1.815.2-2.629 1.608-6.489 6.315-11.178 9.34-16.526 1.543-2.667 2.703-5.531 3.101-8.535a21.795 21.795 0 0 0-.66-8.97c-1.652-5.81-5.786-10.701-10.866-13.572 2.918 1.515 5.9 4.098 7.97 7.195 2.108 3.083 3.253 6.572 3.733 9.394C74.103 16.792 63.93 7.936 52.802 7.943c.822.023 1.62.102 2.407.209-3.4-.32-6.98-.072-10.303 1.079-3.334 1.106-6.39 3.021-8.814 5.402 4.44-4.406 10.6-6.892 16.71-6.69a21.438 21.438 0 0 0-9.104 1.59c1.74-.8 4.446-1.574 7.232-1.729 3.43-.183 6.88.324 10.036 1.584-4.98-2-10.552-2.166-15.254-.88 3.655-1.112 7.678-1.244 11.497-.49 3.824.786 7.436 2.56 10.417 5.016-3.255-2.726-7.233-4.6-11.427-5.297 9.568 1.454 17.866 9.16 19.6 18.653-1.028-5.05-3.943-9.9-8.173-13.356 5.62 4.604 8.882 11.936 8.294 19.179-.227 3.616-1.526 7.084-3.358 10.213-1.814 3.152-4.073 6.047-5.984 9.186.989-1.445 2.28-3.185 3.344-4.576-.48.696-.963 1.39-1.437 2.086-.326.472-.653.954-.977 1.446l-.445.697c.08-.124.162-.248.243-.371-.84 1.303-1.625 2.634-2.294 4.033-.712 1.49-3.154 7.462 0 7.648 2.135.126 1.954-3.265 2.555-4.902 2.972-8.098 11.014-13.951 11.99-23.923.911-9.322-2.661-16.706-7.666-21.766-4.21-4.257-9.967-7.146-16.51-7.843a28.887 28.887 0 0 0-4.736-.116c.754-.086 1.28-.134 1.498-.2.731-.136-2.639-.396-6.942.735-4.322 1.057-9.2 3.935-11.87 6.597.706-.703.707-.704 1.45-1.367-.755.652-1.459 1.358-2.116 1.955 1.288-1.543 4.421-3.87 5.37-4.468-.528.28-1.051.574-1.567.879 2.046-1.559 5.381-3.334 9.012-4.26 3.615-1.002 7.417-1.081 10.028-.94-6.348-.476-13.566 1.055-19.536 5.36C29.986 12.57 25.666 19.597 24.55 27.37c-.551 3.891-.085 7.957 1.28 11.701 1.398 3.755 3.555 7.074 5.707 10.334 2.116 3.21 4.601 6.384 5.258 9.9.192.935.248 1.937.913 3.019.776 1.227 2.725 1.362 3.653.151.793-1.21.587-2.317.494-3.303a15.87 15.87 0 0 0-.7-2.867c-1.485-4.115-4.13-7.428-6.35-10.714-2.259-3.272-4.124-6.674-4.842-10.304-1.478-7.29 1.163-14.741 6.006-19.48.892-.918 2.501-2.414 4.555-3.685 2.038-1.291 4.508-2.306 6.654-2.796 3.784-.831 7.868-.684 11.54.455a22.448 22.448 0 0 1 9.676 6.063c5.666 5.815 7.649 14.801 4.547 22.279-1.498 3.79-4.15 7.225-6.697 11.058-1.266 1.938-2.504 3.945-3.448 6.296-.446 1.157-.844 2.331-1.066 3.696-.099.691-.186 1.417-.02 2.35.09.462.255 1.003.644 1.539.38.54 1.02.978 1.612 1.157.85.26 1.904.287 2.919-.34.954-.641 1.27-1.444 1.475-1.982.373-1.128.39-1.828.417-2.145.002-.296-.056-.232-.259.552-.126.404-.21.972-.674 1.915-.227.44-.66 1.133-1.573 1.533-.966.336-1.757.316-2.785-.234-.868-.526-1.24-1.477-1.331-2.122-.114-.689-.068-1.273.002-1.828.154-1.104.454-2.087.797-3.046.677-1.922 1.68-3.714 2.713-5.38 2.098-3.349 4.52-6.359 6.346-9.624-.475.717-2.377 3.767-3.451 5.124 2.505-3.687 4.529-6.905 5.568-10.661-.275.97-.623 1.924-1.032 2.86 1.227-2.848 1.918-5.943 1.728-9.182-.18-4.705-2.026-9.403-5.159-13.062-2.35-2.623-4.937-4.44-9.429-6.495 5.871 2.123 10.975 6.826 13.318 12.807 2.399 5.99 1.865 12.979-1.543 18.61a.496.496 0 0 1 .04-.055c-2.52 4.515-5.926 8.225-8.175 13.077.417-.879.87-1.71 1.304-2.463-1.005 1.759-1.894 3.654-2.435 5.665-.274 1.109-.57 2.222-.341 3.652.094.68.603 1.678 1.526 2.042.823.33 1.674.35 2.56-.155 1.542-1.223 1.426-2.537 1.718-3.556.167-1.118.372-1.815.816-2.797.798-1.849 1.865-3.608 3.016-5.341-1.608 2.385-3.327 4.988-3.887 7.664-.155.74-.264 1.53-.613 2.396ZM28.737 28.502a16.93 16.93 0 0 0-.09 1.267c.074-.801.128-1.184.07.36-.052 3.292.6 6.727 2.13 9.948 1.491 3.245 3.761 6.21 6.03 9.31 1.18 1.628 2.725 3.935 3.787 6.728.31.755.407 1.18.477 1.556.153.63.27 1.264.342 1.924.065.794.116 1.664-.359 2.482-.531.842-1.678 1.041-2.48.561.8.465 1.93.27 2.464-.56.478-.81.435-1.685.375-2.483-.066-.605-.18-1.18-.314-1.757.065.404.132.819.246 1.697-.746-5.572-4.656-9.87-7.696-14.365-1.558-2.262-2.963-4.658-3.886-7.258a21.366 21.366 0 0 1-1.186-8.143 21.046 21.046 0 0 0-.077 1.74c-.011-1.006.043-2.01.167-3.007.336-3.56 1.578-7.02 3.514-10.018-.6.88-1.073 1.752-1.496 2.514 2.179-4.62 5.914-8.507 10.466-10.894C45.54 7.79 50.588 6.99 55.442 7.627c-6.841-.888-14.053 1.319-19.163 6.13.2-.19.42-.362.626-.543-.422.352-.821.73-1.22 1.107a23.632 23.632 0 0 0-4.87 6.933 23.691 23.691 0 0 0-2.078 7.248Zm62.11 27.518c-.706-.48-1.42-1.063-2.17-1.414.064.07.138.137.213.202.633.389 1.298.78 1.957 1.212Zm4.408-22.73c.829-.012 1.72.145 2.574.048l-.296-.06c-.755-.003-1.516-.01-2.278.011Zm5.681-.396c-.719.187-1.5.23-2.282.235.769.025 1.566-.023 2.282-.235Zm2.97-.932c.038-.138.064-.265.094-.391-.032.133-.059.258-.094.39Zm-.843 1.24c.333-.262.635-.652.772-1.095.097-.42.2-.891.029-1.504.046.395.002 1.066-.15 1.167-.046.553-.685 1.362-1.196 1.549a5.653 5.653 0 0 1-1.448.463c-.91.173-1.755.227-2.578.271.652.264 1.067-.084 1.545-.099.661-.004 1.338-.032 2.113-.278.387-.148.818-.303 1.222-.745.206-.183.346-.48.469-.75a3.7 3.7 0 0 0 .065-.22 2.562 2.562 0 0 1-.304.68c-.158.23-.346.415-.539.56ZM79.44 51.647l-.01-.076.01.076Zm23.042-22.579a2.473 2.473 0 0 0-.518-.266c.177.092.338.152.518.266Zm-5.737 5.143c-.909-.158-1.79-.248-2.668-.218.112.105.522.034.717.117-.632.066-1.186.121-1.856.132.449-.008.887-.016 1.316-.018-1.072.004-2.325.093-3.601.031-.466-.011-.895.34-1.584.037 1.76.003 3.406-.26 5.008-.299l-.008-.008a35.628 35.628 0 0 1 2.01.028c-.216-.025-.43-.05-.618-.038.997-.071 2.01-.027 3.05-.021-1.456-.221-2.945-.38-4.395-.34-1.483.042-3.022.175-4.529.037.853-.141 1.95.094 2.658-.157-1.338.033-2.674.124-4.16-.07l.317.096a3.333 3.333 0 0 1-1.509-.36 2.116 2.116 0 0 1-.8-.693 2.365 2.365 0 0 1-.256-.598c.15.426.513.987.912 1.134.493.281.915.334 1.337.42-.377-.137-.77-.184-1.317-.486.328.116.724.226 1.099.27.488.113.955.145 1.418.174-.708-.063-1.429-.199-2.06-.554 1.013.31 1.98.326 2.93.313-.52-.022-1.04-.065-1.56-.146a5.17 5.17 0 0 1-1.337-.275c-.428-.105-.917-.655-.972-1.115a1.33 1.33 0 0 1-.024-.157c-.068-.373-.057-.814.146-1.21.19-.356.534-.562.85-.664l.152-.073c-.11.016-.176.006.008-.1.81-.437 1.743-.312 2.667-.463.246-.04.577-.014.93.027.097-.022.147-.005.191.023l.23.029c.187.012.374.023.556.057a10.88 10.88 0 0 1-.557-.057l-.21-.016c.047.03.096.069.2.075-1.287 0-2.657-.087-4.015.425.091-.01.215-.024.267-.024-.138.022-.279.05-.419.097-.426.2-.824.61-.944 1.123a.954.954 0 0 1 .223-.36c-.246.663-.248 1.35.237 1.948.534.493 1.203.597 1.821.71 1.19.095 2.345.011 3.495-.058a11.21 11.21 0 0 1-1.935.204c1.775.084 3.533-.071 5.26-.128-.204-.088-.46-.16-.669-.243.086 0 .172 0 .26.002.082.005.165.01.25.013h.099l-.099-.009c3.03.064 7.013.582 7.524-.986.402-1.232-.276-1.766-1.179-2.157a2.693 2.693 0 0 0-.578-.158c.115-.028.2-.063.244-.109.239-.37-1.606-.272-2.478-.248l.239-.073c-.12.036-.239.073-.344.03.237-.076.703-.134.842-.248l-.213-.09c.66-.23 1.708-.314 2.763-.196-1.196-.19-1.897.012-2.818.042-.877.065-1.78.115-2.703.145-1.882.09-3.664.011-5.486-.154-1.023-.088-2.012-.222-3.144-.123-.56.066-1.217.17-1.9.707-.716.538-1.042 1.608-1.014 2.3.006.13.019.326.064.506.027.106.032.17.085.325.073.194.172.397.29.589.494.7 1.151.98 1.523 1.096 1.391.533 2.406.534 3.486.718 1.122.087 2.18.023 3.213-.037a21.901 21.901 0 0 1 3.094 0c.445.029 1.082-.292-.022-.443Zm-11.026-2.98c.007.107.03.201.045.303-.016-.101-.039-.194-.045-.303ZM11.76 34.676c.453.033 1.092-.282-.018-.443-.922-.167-1.773-.275-2.649-.239.113.105.522.032.711.117-.619.064-1.182.124-1.852.135.451-.009.89-.018 1.319-.021-1.072.008-2.334.097-3.61.032-.468-.016-.897.337-1.587.028 1.762.013 3.415-.245 5.02-.29l-.01-.009c.7-.011 1.287 0 1.992.041-.215-.026-.432-.058-.617-.045.992-.06 2.02-.002 3.063.003-1.465-.213-2.965-.419-4.391-.369-1.485.045-3.027.178-4.535.031.854-.136 1.952.102 2.661-.15-1.34.034-2.678.118-4.161-.086.11.04.21.063.315.1a3.352 3.352 0 0 1-1.501-.363 2.132 2.132 0 0 1-.799-.672 2.341 2.341 0 0 1-.273-.6c.157.423.533.972.93 1.12.488.275.908.33 1.328.415-.375-.136-.766-.185-1.31-.48a5.95 5.95 0 0 0 1.094.265c.487.116.954.149 1.416.178-.707-.062-1.426-.201-2.055-.558 1.009.304 1.976.334 2.927.323-.52-.026-1.04-.066-1.56-.154a5.077 5.077 0 0 1-1.335-.28c-.422-.097-.915-.632-.987-1.088a1.555 1.555 0 0 1-.03-.163c-.076-.374-.07-.825.144-1.222.206-.35.55-.547.868-.642l.153-.07c-.11.011-.176-.002.01-.099.81-.43 1.738-.3 2.662-.457.245-.04.577-.018.93.022.097-.024.147-.006.19.021l.23.027c.187.012.375.02.556.055a10.496 10.496 0 0 1-.556-.055l-.21-.014c.047.031.096.069.2.074-1.287.006-2.655-.066-4.012.426.092-.005.213-.026.266-.02-.138.02-.28.043-.419.09-.425.187-.846.586-.966 1.105a.924.924 0 0 1 .225-.36c-.263.664-.232 1.363.261 1.943.538.48 1.201.59 1.82.707 1.19.105 2.346.02 3.495-.045-.616.12-1.266.187-1.935.2 1.774.096 3.54-.076 5.258-.122-.203-.092-.458-.165-.667-.248l.263.003c.081.006.163.011.247.015l.1.001-.11-.01c2.622.083 6.992.65 7.526-.99.401-1.232-.276-1.766-1.18-2.157a2.964 2.964 0 0 0-.578-.17c.117-.026.205-.059.25-.103.251-.367-1.609-.308-2.479-.27l.239-.073c-.12.037-.239.074-.345.031.238-.078.705-.138.844-.25l-.213-.09c.643-.242 1.765-.286 2.758-.167-1.133-.192-1.907-.027-2.815.013a78.22 78.22 0 0 1-2.705.163c-1.874.096-3.67.027-5.487-.122-1.022-.082-2.012-.207-3.132-.119-.56.067-1.199.155-1.894.664-.736.517-1.096 1.633-1.043 2.348.01.132.027.335.078.515.029.104.04.176.093.322.078.19.18.388.302.575a2.95 2.95 0 0 0 1.511 1.064c1.372.526 2.4.546 3.476.728 1.125.093 2.19.028 3.224-.034 1.023-.08 1.9-.072 3.071.02ZM.71 31.244c.006.112.034.205.05.308-.017-.103-.045-.194-.05-.308Zm92.373 24.838c-.924-.787-1.884-1.405-2.828-2.06-.367-.253-1.073-.304-.21.391.708.615 1.474 1.199 2.242 1.837-.02-.155-.43-.41-.555-.601a8.45 8.45 0 0 1 1.415 1.09 14.238 14.238 0 0 0-.54-.514c.367.322.746.674 1.114 1.118.445.572 1.015 1.275 1.068 2.49-.082.903.17 1.724-1.205 2.53.413-.278.647-.624.839-.956.135-.313.275-.593.324-1.043.112-.831-.18-1.542-.474-2-.61-.964-1.314-1.533-1.986-2.114l.001.012c-.597-.513-1.166-.905-1.76-1.319.177.138.354.288.528.39-.923-.55-1.813-1.047-2.57-1.601.95.946 2.31 1.758 3.518 2.774.61.514 1.22 1.059 1.724 1.813.228.403.48.832.505 1.425a2.247 2.247 0 0 1-.488 1.549c.256-.499.505-1.213.35-1.897-.152-.624-.46-1.083-.79-1.328.424.56.945 1.367.697 2.406-.133.427-.313.852-.78 1.197-.448.339-1.062.403-1.492.32.138.03.269.067.415.09-1.287.035-2.042-.69-2.79-1.142.695.427 1.396.872 2.375 1.053a8.488 8.488 0 0 1-1.274-.501c.271.053.617.2 1.03.275.487.147 1.244.165 1.764-.306-.923.707-1.888.203-2.382-.114.464.171.981.353 1.576.253.633-.098 1.018-.688 1.155-1.157-.162.523-.679 1.088-1.318 1.08-1.01.048-1.81-.48-2.556-.945l.08.065-.165-.12c-.29-.195-.573-.4-.85-.606a6.579 6.579 0 0 1-.667-.63L88 59.194c.058.086.075.142-.087.046-.706-.386-1.3-1.04-2.125-1.464-.216-.111-.466-.318-.732-.547-.092-.034-.123-.077-.143-.124l-.174-.15c-.147-.111-.298-.222-.43-.35.144.109.288.23.43.35l.165.129c-.021-.052-.04-.11-.123-.172 1.052.732 2.149 1.482 3.219 2.282-.047-.07-.123-.16-.15-.203l.273.296c.348.259.676.523 1.01.804a1.597 1.597 0 0 1-.226-.287c1.006.68 1.938 1.634 3.374 1.719.743-.046 1.166-.752 1.25-1.337.09-.65-.244-1.213-.592-1.664.436.425.876 1.112.66 1.92.33-1.09-.378-1.98-.955-2.618-.625-.665-1.347-1.193-2.09-1.668.12.189.287.395.402.586a22.58 22.58 0 0 0-.248-.186c-.05-.041-.1-.082-.152-.122l-.082-.056.05.043c-.933-.678-1.842-1.237-2.286-1.56-2.535-1.839-3.857-3.083-6.093-4.313-.088-.048-.293.014-.394 0-.2-.029-.395-.04-.58-.036.099-.047.172-.094.2-.156.104-.16-.33-.246-.922-.037-.673.2-1 1.063-.97 1.528-.02-.104-.027-.13-.038-.2a.716.716 0 0 1-.007.319c-.088-.278-.044-.806-.02-1.043-.068.076-.147.163-.203.245-.037-.456.484-1.205 1.124-1.423.616-.263 1.183-.289 1.586-.375-.483.047-1 .107-1.572.342-.568.192-1.209.833-1.305 1.485a2.513 2.513 0 0 0 .239 1.779c.29.518.688.88 1.076 1.2 1.597 1.114 2.981 2.247 4.434 3.347 1.545 1.28 2.832 2.587 4.032 3.941.267.245.996.736 1.72 1.015.58.256 1.417.68 2.696.272.62-.219 1.089-.677 1.392-1.107.244-.384.468-.775.58-1.413.134-1.28-.386-2.114-.781-2.707-.43-.615-.888-1.035-1.35-1.442ZM57.785 92.284l-1.387-.447c.481.165.955.325 1.387.447ZM86.28 31.558l.006.046.013.063-.019-.109Zm6.864 25.18c.081.08.162.159.242.242a8.103 8.103 0 0 0-.242-.242ZM24.343 54.28c.25-.275.491-.6.69-1.07a6.076 6.076 0 0 1-.246.44 2.499 2.499 0 0 1-.239.365 5.47 5.47 0 0 1-.205.265Zm.705-2.116c.018.496-.176 1.155-.344 1.21-1.166 1.859-2.645 2.583-3.77 3.665.655-.16.752-.668 1.12-.91.773-.54 1.589-.995 2.29-1.849-.126.139-.254.265-.379.39.177-.211.39-.41.583-.655.082-.114.162-.237.24-.364.19-.357.311-.82.26-1.487Zm12.494 17.51.038-.022-.038.022Zm29.034-38.85Zm-28.649 43.92c1.743 1.037 3.283 1.289 4.74 1.714 1.04.298 2.679.454.005-.455-1.175-.376-2.443-.703-3.76-1.36-.641-.348-1.4-.755-1.948-1.725a2.642 2.642 0 0 1-.324-1.294c.023 1.035.678 1.998 1.3 2.386 1.014.726 1.983 1.027 2.95 1.334a24.723 24.723 0 0 1-1.773-.665c1.474.606 2.884.852 4.17 1.193 1.22.347 2.589.827 3.87 1.246-1.856-.721-3.58-1.426-5.574-1.925-.995-.305-2.023-.595-3.054-1.228-.497-.313-1.068-.751-1.365-1.52-.246-.736-.233-1.623.443-2.32 1.365-1.056 2.47-.789 3.53-.895 1.064-.008 2.064.028 3.076.022 2.036.001 4.05.011 6.014.046-2.206.182-5.151-.074-7.061.143 3.586.01 7.213-.025 10.907-.072l-.81-.048c2.286-.158 4.758.04 6.984-.121-2.054.165-4.13.116-6.175.169.937.042 1.932.043 3.121.02-.642.076-1.57.11-2.498.142-1.218.006-2.437.011-3.642.022 1.866.01 3.706.063 5.394.151-2.53.075-5.137.081-7.68.123l4.189.042c2.334-.061 4.718-.014 7.07-.15l-.272.007.542-.023c.931-.056 1.873-.114 2.832-.108.858.02 1.721.11 2.54.43.141.052.281.102.416.174-.245-.148-.367-.253.158-.018 1.34.497 1.262 2.848-.2 3.265-1.22.484-2.467.441-3.733.51-.664.026-1.558-.049-2.5-.132a1.68 1.68 0 0 1-.504-.036c-.193-.013-.407-.019-.615-.026a27.386 27.386 0 0 1-1.516-.046c.494.011 1.005.029 1.516.046.189.003.387.003.564.012a1.9 1.9 0 0 0-.542-.072c1.716-.008 3.512.223 5.339.074.887-.121 1.905-.153 2.66-.942.684-.828.387-2.238-.627-2.635.203.126.466.353.537.483-.25-.312-.601-.515-.952-.658-1.194-.37-2.4-.347-3.583-.35.354.009.684.036.972.079-3.373.156-6.709.19-10.102.116-3.168.05-6.305.106-9.431.138 1.683-.1 3.447-.15 5.242-.18-2.389-.03-4.77-.02-7.16-.064-1.176.069-2.484-.158-3.645.781-.518.585-.463 1.41-.116 1.996.372.588.946.913 1.495 1.177a3.308 3.308 0 0 1-1.229-1.243c.132.197.31.376.52.54.13.107.27.204.414.29.075.052.157.087.237.128l-.037-.022c1.466.79 3.72 1.18 4.931 1.585 6.961 2.332 11.696 4.066 18.672 6.275 1.228.389 2.65 1.08 3.734 0 .316-.604.342-1.097.176-1.508.136.226.198.42.253.5.075.133.193-.114.036-.606-.156-.501-.719-1.018-1.393-1.328-1.365-.626-3.092-.985-4.242-1.404l.634.127c-.316-.064-.634-.127-.893-.255.634.124 1.843.446 2.219.447l-.518-.26c.818.155 1.953.333 3.213.903.6.282 1.35.77 1.71 1.686.316.944.037 1.738-.137 2.249.247-.597.5-1.498.107-2.384-.387-.855-1.065-1.275-1.624-1.552-1.169-.55-2.264-.755-3.372-1.096-2.233-.64-4.57-1.35-6.953-2.096-.625-.195-1.253-.393-1.883-.593 1.946-.01 3.917.083 5.768.11 1.332.1 2.69.256 4.08.234.702-.017 1.407-.047 2.187-.27.393-.134.82-.29 1.232-.676.442-.342.677-1.087.724-1.444.08-.452.05-1.061-.245-1.597-.288-.536-.74-.886-1.136-1.105-.811-.434-1.524-.55-2.206-.664-1.356-.193-2.601-.204-3.795-.237-.912.031-2.902.076-4.488.09-2.717-.06-5.431-.12-8.112-.26a179.68 179.68 0 0 0-4.261-.065c-1.387.018-2.745-.141-4.607.153-.469.093-1.03.218-1.7.655-.69.378-1.336 1.507-1.322 2.243-.122.734.157 1.633.562 2.238.414.572.901.981 1.33 1.239Zm-.261-5.436c-.337.217-.67.534-.966 1.016.253-.473.61-.795.965-1.016Zm-1.09 1.521c.243-.989 1.157-1.61 1.724-1.794 1.2-.41 2.092-.37 3.057-.389-.638 0-1.293.005-2.035.109-.251.056-.563.102-.898.205a.35.35 0 0 1 .014-.005c.56-.182 1.025-.227 1.487-.271.91-.072 1.743-.048 2.564-.033 1.595.035 3.288.028 4.943.066 1.216.01 2.28-.343 3.998-.09-2.164.06-4.36.124-6.573.173-1.12.033-2.166.032-3.322.034-1.162.108-2.27-.192-3.954.818-.532.45-.805.96-.901 1.474.076-.504.419-1.147.862-1.452-.242.08-.9.798-.947 1.58-.16.708.179 1.566.41 1.975-.493-.694-.63-1.608-.429-2.4ZM23.502 50.53a2.52 2.52 0 0 0-.542-.216c.183.07.359.128.542.216Zm-3.518 6.344-.266.137c-.584.466-1.17.946-1.763 1.44.654-.527 1.433-.977 2.03-1.577Zm-6.493 5.148c.675-.595 1.685-1.064 2.107-1.648-1.078.74-2.015 1.727-3.667 2.207l.38-.048c-.446.21-1.214.354-1.918-.099-.666-.484-.871-1.072-.992-1.665-.016-.112-.041-.22-.038-.337-.002.115.022.225.038.337.119.557.338 1.029.83 1.466.524.438 1.242.46 1.7.346-.43.035-1.082.06-1.673-.41.336.222.9.359 1.348.284.59-.055 1.052-.271 1.474-.497-.637.306-1.496.626-2.306.183 1.28.353 2.138-.386 2.92-.865-.446.273-.912.527-1.43.696-.416.157-.933.287-1.455.061-.532-.248-.756-.757-.89-1.232l.024.115a1.103 1.103 0 0 1-.043-.231 1.99 1.99 0 0 1 .186-1.193c.168-.318.417-.552.674-.743l.113-.114c-.094.049-.156.06-.03-.094.542-.666 1.373-1.016 2.031-1.665.174-.171.451-.342.755-.518.063-.076.114-.092.165-.096l.198-.115c.155-.103.31-.207.476-.29a10.6 10.6 0 0 1-.476.29l-.175.114c.056-.003.117-.003.203-.06-1.029.773-2.122 1.502-3.147 2.434.08-.038.185-.096.233-.115a4.293 4.293 0 0 0-.346.23c-.315.319-.61.696-.767 1.174a.983.983 0 0 1 .225-.336c-.307.604-.233 1.375.154 1.93.394.66 1.312.68 1.892.454 1.136-.481 1.99-1.275 2.892-1.972-.433.445-.915.882-1.461 1.276a44.695 44.695 0 0 0 4.215-3.144c-.214.057-.46.157-.675.216.076-.057.152-.115.23-.172l.18-.125.076-.06-.078.05c1.17-.877 2.384-1.785 3.464-2.552 1.119-.794 4.96-3.22 1.573-4.314a1.512 1.512 0 0 0-.633-.064c.116-.07.208-.124.262-.16.127-.17-.393-.249-.932.02-.533.256-1.011.738-1.361 1.017.068-.105.066-.105.137-.21-.07.105-.137.21-.246.245.13-.21.458-.557.508-.734l-.232.066c.177-.298.515-.658 1.037-.949.505-.305 1.279-.427 1.828-.364-1.437-.196-2.384.654-3.008 1.23-.69.652-1.217 1.217-1.988 1.73-1.47 1.056-3.128 2.01-4.616 3.011-.86.536-1.688.967-2.569 1.495-.437.272-.891.572-1.334 1.044-.436.442-.872 1.223-.886 2.1-.001.329.102.841.37 1.333.234.503.898 1.177 1.596 1.335 1.214.363 1.978.009 2.593-.186.622-.237 1.132-.506 1.628-.76 1.874-1.15 3.355-2.524 5.167-3.82.36-.255.64-.896-.298-.328-.797.445-1.56.96-2.301 1.513.152.024.465-.292.679-.35-.505.462-.94.823-1.487 1.213l1.09-.78c-.928.666-1.854 1.373-2.937 2.081-.4.261-.567.816-1.393.953 1.68-1.048 2.678-2.158 4.048-3.117l-.012-.002c.592-.424 1.109-.83 1.67-1.243-.182.117-.371.233-.514.364.755-.69 1.546-1.306 2.341-1.909-2.54 1.359-4.767 3.504-7.396 5.073Zm-3.23-28.728c.827 0 1.722.17 2.578.075l-.298-.061c-.755-.009-1.52-.027-2.28-.014Zm39.17-17.507c-.407.45-.467 1.015-.445 1.412.022.355.12.91.494 1.327.392.38.827.52 1.185.606.727.166 1.362.182 1.985.31 2.518.39 4.99 1.539 6.667 3.235 1.853 1.955 2.487 4.483 2.496 6.755.08.437.097 1.339.405 2.522.13.467.337 1.281 1.284 1.856.952.515 1.75.344 2.257.24.173-.018.759-.218 1.13-.526.399-.323.623-.669.807-1.013.3-.642.38-1.165.451-1.65.112-1.982-.308-3.475-.806-5.063-.547-1.615-1.328-3.126-2.326-4.626-.428-.605-1.288-1.166-.326.306.701 1.251 1.322 2.521 1.81 3.876.057-.2-.268-.808-.319-1.134a12.12 12.12 0 0 1 1.051 2.779 17.77 17.77 0 0 0-.25-.915c.42 1.35.743 2.77.735 4.434-.002.385.053.787-.007 1.305-.08.466-.31 1.412-1.508 1.874.715-.318 1.094-.965 1.265-1.427.176-.484.216-.894.23-1.267.024-.75-.072-1.396-.186-2.03a23.64 23.64 0 0 0-1.01-3.619l-.004.015c-.377-1.067-.834-1.976-1.383-2.909.165.295.307.607.464.859-.807-1.332-1.75-2.635-2.884-3.706 1.461 1.68 2.621 3.667 3.426 5.8.4 1.077.686 2.152.887 3.27.124 1.132.43 2.235-.272 3.657.573-1.634.34-3.164-.028-4.192.19.968.363 1.942.26 3.052-.074.519-.2 1.279-.989 1.741-.654.271-1.21.504-2.107.073.223.154.468.237.7.285-.508.016-1.148-.39-1.37-.83-.252-.427-.33-.813-.392-1.16-.113-.703-.113-1.288-.243-1.846.126.514.166 1.022.273 1.615.136.545.165 1.324 1.032 1.936-.764-.59-.828-1.336-.968-1.965.15.345.198.892.668 1.48.29.409.902.617 1.317.562.444-.062.722-.088 1.208-.392-.703.377-1.157.456-1.915.217-.728-.37-.833-1.065-.894-1.502.098.345.213.727.523 1.065.33.348.85.425 1.225.356.355-.06.782-.15 1.092-.509.273-.333.379-.719.423-1.073-.063.384-.201.809-.541 1.124-.385.309-.774.357-1.19.384-.826.108-1.355-.8-1.425-1.39-.15-.643-.179-1.263-.304-1.864l.017.14-.044-.277c-.084-.476-.182-.95-.317-1.417-.086-.428-.191-.84-.271-1.266l-.067-.206c.01.143 0 .216-.103-.025-.497-.994-.918-2.164-1.837-3.075-.221-.25-.528-.572-.84-.948-.11-.074-.156-.127-.184-.188l-.225-.223a12.83 12.83 0 0 0-.584-.51c.209.145.401.323.584.51l.213.196c-.03-.065-.059-.138-.166-.234 1.392 1.14 2.48 2.732 3.142 4.497-.012-.116-.052-.272-.06-.342.051.18.096.362.127.549.203.575.349 1.168.467 1.766a3.173 3.173 0 0 1-.033-.506c.239.842.363 1.708.453 2.589.05.442.094.897.26 1.354.125.468.66.916 1.198.87.45-.043.936-.142 1.271-.55.294-.395.347-.85.377-1.27.048-.856-.109-1.678-.274-2.488.225.733.404 1.523.383 2.37.11-2.488-.671-4.844-1.804-6.966.063.302.16.662.207.966a16.224 16.224 0 0 0-.223-.48 34.21 34.21 0 0 0-.078-.172l-.063-.127.035.085c-.581-1.157-1.252-2.149-1.841-2.844-2.297-2.71-6.066-4.93-10.348-5.242-.288-.02-.573-.042-.846-.05.151-.038.26-.079.3-.146.13-.152-.423-.263-1.254-.113-.401.063-.966.393-1.088.917-.11.486-.037.894.09 1.264-.103-.174-.093-.178-.181-.371.086.2.156.374.243.55-.346-.34-.418-1.112-.442-1.403a2.014 2.014 0 0 0-.14.397c-.06-.269-.057-.73.263-1.186.332-.461.854-.656 1.245-.757.81-.189 1.453-.175 1.896-.29-.536.078-1.122.09-1.871.258-.364.093-.843.24-1.245.674ZM22.253 54.775c-.534.507-1.145.96-1.756 1.433.619-.442 1.236-.906 1.756-1.433Zm31.376 23.533c-1.898-.558-3.877-1.202-5.887-1.866 1.968.683 3.98 1.332 5.887 1.866Zm-8.053-2.356-.75-.303c-1.763-.65-3.715-.806-5.63-1.706 2.127 1.014 4.335 1.294 6.38 2.009Zm19.722 12.512c-1.601-.639-3.116-.932-4.324-1.427-5.961-2.148-11.85-3.93-18.228-6.177-1.268-.449-3.131-.73-.026.458a171.575 171.575 0 0 0 7.834 2.857c-.271-.209-1.552-.575-2.113-.853 1.972.601 3.593 1.12 5.504 1.778l-3.13-1.081c2.999 1.033 6.275 2.127 9.502 3.26 1.28.483 2.314.275 4.285 1.14-4.69-1.053-9.358-2.73-14.048-4.244l.021.016c-2.078-.72-3.966-1.35-5.97-2.044.618.229 1.247.465 1.804.636a196.582 196.582 0 0 1-4.39-1.405l-1.085-.364c-.405-.141-1.024-.284-1.551-.222-1.063-.075-2.527 1.042-2.55 2.322.085-.847.768-1.763 1.598-2.032.807-.292 1.567-.236 2.292.009 1.048.393 2.08.776 3.14 1.156 2.113.76 4.267 1.503 6.427 2.236 4.316 1.408 8.68 3.023 12.777 4.191-2.401-.359-5.364-1.78-7.478-2.205 1.885.63 3.816 1.28 5.692 1.867.938.26 1.942.47 2.952.778.981.366 2.12.56 3.006 1.823-.215-.413-.513-.681-.798-.918.65.31 1.423 1.482 1.115 2.445-.214.975-.834 1.555-1.382 2.04-1.148.94-2.394 1.501-3.56 2.062-.206.1-.422.195-.637.292l.637-.292c1.07-.516 2.148-1.061 3.15-1.821.495-.387.989-.826 1.368-1.456.386-.606.579-1.56.107-2.352.396.726.275 1.625-.104 2.237-.368.632-.88 1.104-1.446 1.542.508-.52 1.601-1.276 1.653-2.766.02-1.038-.846-1.694-1.45-2.014-.662-.354-1.33-.571-1.99-.765 1 .335 2.075.627 2.925 1.576.437.497.528 1.29.307 1.84-.208.575-.585.983-.96 1.314.517-.518 1.043-1.261.944-2.164-.166-.958-.97-1.416-1.611-1.731-1.363-.623-2.789-.87-4.14-1.23 1.473.431 3.032.712 4.452 1.496.56.315 1.247.878 1.21 1.704.008.784-.492 1.396-.963 1.874-1.007.944-2.215 1.556-3.414 2.139l.28-.124-.554.253a26.68 26.68 0 0 1-2.939 1.163c-.906.291-1.83.47-2.748.592l-.465.076c.298-.015.449-.004-.117.108-2.442.405-5.09.276-7.894-.003-.736-.074-1.718-.282-2.745-.609a1.951 1.951 0 0 1-.555-.181l-.659-.24a15.208 15.208 0 0 1-1.573-.657c.505.23 1.037.449 1.573.657l.605.21c-.13-.075-.264-.157-.562-.26 3.735 1.286 7.882 1.473 11.927.975a8.617 8.617 0 0 1-.741.022c.404-.007.803-.057 1.206-.098a24.922 24.922 0 0 0 3.821-1.032c-.379.11-.731.209-1.049.266 1.778-.602 3.504-1.34 5.14-2.291.798-.499 1.621-1.047 2.134-1.93.244-.442.36-1.007.144-1.527-.218-.507-.645-.838-1.062-1.086-1.633-.85-3.406-1.052-5.054-1.553a588.076 588.076 0 0 1-4.971-1.588c1.803.487 3.684 1.092 5.573 1.645-5.003-1.66-10.033-3.415-15.066-5.014.565.28 1.28.595 1.85.877l-.82-.28c-.208-.074-.418-.15-.632-.224l-.284-.095.286.104a953.342 953.342 0 0 1-6.259-2.156c-.962-.337-2.358-.117-2.555 1.176-.313 2.055 3.176 2.76 4.914 3.334 6 1.981 12.932 4.185 18.279 5.882-.946.89-2.572 1.525-4.416 1.88.248-.087.413-.177.47-.264.202-.236-.915.063-2.465.222-1.552.17-3.526.218-4.854.034.332.007.355.002.643-.004-.332.01-.662 0-.95-.076.708.038 2.077.037 2.466-.077-.207-.028-.413-.073-.618-.108 1.781-.127 5.11-.444 6.584-1.272-3.742 1.512-9.49 1.7-14.248-.676-1.21-.536-2.133-1.546-3.72-2.13-.396-.12-.86-.237-1.41-.088-.564.147-.972.622-1.16 1.037-.474.852-.207 2.033.321 2.652 1.02 1.326 2.332 2.019 3.596 2.69 1.261.634 2.585 1.194 3.923 1.586 2.988.936 6.027 1.224 8.916 1.212 2.979.029 5.831-.672 8.429-1.617.934-.42 3.246-1.286 4.822-3.1.673-.71 1.48-2.361.508-3.924-.894-1.24-1.834-1.534-2.619-1.894Zm-5.59-7.258a906.103 906.103 0 0 0-12.624-4.01c1.542.794 2.664.807 3.81 1.21 3.118 1.143 6.309 2.214 9.2 3.174a401.623 401.623 0 0 1-3.46-1.17 88.22 88.22 0 0 0 4.992 1.549c-.51-.248-1.675-.557-1.918-.753Zm-21.25 4.94c.78.4 1.455.545 2.128.78 3.507 1.156 7.044 2.345 10.254 3.382l-3.843-1.269a129.36 129.36 0 0 0 5.537 1.7c-.566-.268-1.856-.615-2.13-.819a526.814 526.814 0 0 0-7.063-2.21c-1.176-.392-2.29-.616-3.573-1.082-.624-.238-1.269-.511-1.912-1.02-.645-.452-1.284-1.56-1.116-2.586-.207.779.1 1.678.505 2.148.399.493.83.784 1.214.977Zm1.878-.221c1.11.378 2.21.611 3.266.925-1.052-.325-2.141-.564-3.245-.94-1.014-.396-2.409-.853-2.7-2.282.266 1.415 1.658 1.904 2.68 2.297Zm12.191-70.786.732.08a6.836 6.836 0 0 0-.732-.08Zm3.821.78c2.355.785 4.58 2 6.432 3.64-.535-.869-1.245-.99-1.781-1.401-1.317-1.041-2.835-1.833-4.313-2.367.335.124.666.262.992.407a11.126 11.126 0 0 0-2.398-.728c.286.152.95.287 1.068.449Zm.338-.128ZM67.225 81.91c-.436.438-1.084.762-1.694.816a2.707 2.707 0 0 0 1.694-.816ZM59.29 18.19c.94.474 1.858 1.119 2.693 1.886a10.22 10.22 0 0 0-2.693-1.886Zm3.687 2.587.25.366c.726.85 1.355 1.783 1.9 2.79-.579-1.093-1.21-2.292-2.15-3.156Z"/></svg>